<svg width="41" height="44" viewBox="0 0 41 44" fill="none" xmlns="http://www.w3.org/2000/svg">
<path d="M0.742188 18.5713C0.742188 8.6411 8.79222 0.591064 18.7224 0.591064V25.4286C18.7224 35.3588 10.6724 43.4088 0.742188 43.4088V18.5713Z" fill="#2495FD"/>
<path d="M21.3311 10.3615C21.3311 4.96551 25.7055 0.591187 31.1015 0.591187C36.4974 0.591187 40.8718 4.96551 40.8718 10.3615V10.9256C40.8718 16.3216 36.4974 20.6959 31.1015 20.6959C25.7055 20.6959 21.3311 16.3216 21.3311 10.9256V10.3615Z" fill="#94A0DF"/>
<path d="M21.3311 33.0745C21.3311 27.6785 25.7055 23.3042 31.1015 23.3042C36.4974 23.3042 40.8718 27.6785 40.8718 33.0745V33.6386C40.8718 39.0346 36.4974 43.4089 31.1015 43.4089C25.7055 43.4089 21.3311 39.0346 21.3311 33.6386V33.0745Z" fill="#36ACB4"/>
</svg>
