<svg width="155" height="44" viewBox="0 0 155 44" fill="none" xmlns="http://www.w3.org/2000/svg">
<path d="M0.742188 18.5713C0.742188 8.6411 8.79222 0.591064 18.7224 0.591064V25.4286C18.7224 35.3588 10.6724 43.4088 0.742188 43.4088V18.5713Z" fill="#2495FD"/>
<path d="M21.3311 10.3615C21.3311 4.96551 25.7055 0.591187 31.1015 0.591187C36.4974 0.591187 40.8718 4.96551 40.8718 10.3615V10.9256C40.8718 16.3216 36.4974 20.6959 31.1015 20.6959C25.7055 20.6959 21.3311 16.3216 21.3311 10.9256V10.3615Z" fill="#94A0DF"/>
<path d="M21.3311 33.0745C21.3311 27.6785 25.7055 23.3042 31.1015 23.3042C36.4974 23.3042 40.8718 27.6785 40.8718 33.0745V33.6386C40.8718 39.0346 36.4974 43.4089 31.1015 43.4089C25.7055 43.4089 21.3311 39.0346 21.3311 33.6386V33.0745Z" fill="#36ACB4"/>
<path d="M69.2898 8.40625H74.5456V25.3164C74.5456 27.2852 74.1238 28.9434 73.28 30.291C72.448 31.6387 71.2937 32.6523 69.8171 33.332C68.3523 34.0117 66.6648 34.3516 64.7546 34.3516C62.8445 34.3516 61.1452 34.0117 59.657 33.332C58.1804 32.6523 57.0202 31.6387 56.1765 30.291C55.3445 28.9434 54.9284 27.2852 54.9284 25.3164V8.40625H60.2019V25.3164C60.2019 26.4648 60.3835 27.4023 60.7468 28.1289C61.1101 28.8555 61.6316 29.3887 62.3113 29.7285C63.0027 30.0684 63.8171 30.2383 64.7546 30.2383C65.7155 30.2383 66.53 30.0684 67.198 29.7285C67.8777 29.3887 68.3933 28.8555 68.7448 28.1289C69.1081 27.4023 69.2898 26.4648 69.2898 25.3164V8.40625ZM84.2136 31.8555L89.2585 14.9805H94.6902L87.0437 36.8652C86.8796 37.3457 86.657 37.8613 86.3757 38.4121C86.1062 38.9629 85.737 39.4844 85.2683 39.9766C84.8113 40.4805 84.2312 40.8906 83.528 41.207C82.8366 41.5234 81.987 41.6816 80.9792 41.6816C80.4988 41.6816 80.1062 41.6523 79.8015 41.5938C79.4968 41.5352 79.1335 41.4531 78.7116 41.3477V37.6387C78.8405 37.6387 78.9753 37.6387 79.1159 37.6387C79.2566 37.6504 79.3913 37.6562 79.5202 37.6562C80.1882 37.6562 80.7331 37.5801 81.155 37.4277C81.5769 37.2754 81.9167 37.041 82.1745 36.7246C82.4323 36.4199 82.6374 36.0215 82.7898 35.5293L84.2136 31.8555ZM82.1042 14.9805L86.2351 28.7617L86.9558 34.123L83.5105 34.4922L76.6726 14.9805H82.1042ZM108.471 8.40625V34H103.216V8.40625H108.471ZM116.346 8.40625V12.5371H95.4636V8.40625H116.346ZM126.63 29.7109V21.2383C126.63 20.6289 126.53 20.1074 126.331 19.6738C126.132 19.2285 125.821 18.8828 125.399 18.6367C124.989 18.3906 124.456 18.2676 123.8 18.2676C123.237 18.2676 122.751 18.3672 122.341 18.5664C121.93 18.7539 121.614 19.0293 121.391 19.3926C121.169 19.7441 121.057 20.1602 121.057 20.6406H115.995C115.995 19.832 116.182 19.0645 116.557 18.3379C116.932 17.6113 117.477 16.9727 118.192 16.4219C118.907 15.8594 119.757 15.4199 120.741 15.1035C121.737 14.7871 122.85 14.6289 124.081 14.6289C125.557 14.6289 126.87 14.875 128.018 15.3672C129.167 15.8594 130.069 16.5977 130.725 17.582C131.393 18.5664 131.727 19.7969 131.727 21.2734V29.4121C131.727 30.4551 131.792 31.3105 131.921 31.9785C132.05 32.6348 132.237 33.209 132.483 33.7012V34H127.368C127.122 33.4844 126.934 32.8398 126.805 32.0664C126.688 31.2812 126.63 30.4961 126.63 29.7109ZM127.298 22.416L127.333 25.2812H124.503C123.835 25.2812 123.255 25.3574 122.762 25.5098C122.27 25.6621 121.866 25.8789 121.55 26.1602C121.233 26.4297 120.999 26.7461 120.846 27.1094C120.706 27.4727 120.635 27.8711 120.635 28.3047C120.635 28.7383 120.735 29.1309 120.934 29.4824C121.134 29.8223 121.421 30.0918 121.796 30.291C122.171 30.4785 122.61 30.5723 123.114 30.5723C123.876 30.5723 124.538 30.4199 125.1 30.1152C125.663 29.8105 126.096 29.4355 126.401 28.9902C126.718 28.5449 126.882 28.123 126.893 27.7246L128.229 29.8691C128.042 30.3496 127.784 30.8477 127.456 31.3633C127.139 31.8789 126.735 32.3652 126.243 32.8223C125.751 33.2676 125.159 33.6367 124.468 33.9297C123.776 34.2109 122.956 34.3516 122.007 34.3516C120.8 34.3516 119.704 34.1113 118.719 33.6309C117.747 33.1387 116.973 32.4648 116.399 31.6094C115.837 30.7422 115.555 29.7578 115.555 28.6562C115.555 27.6602 115.743 26.7754 116.118 26.002C116.493 25.2285 117.044 24.5781 117.77 24.0508C118.509 23.5117 119.428 23.1074 120.53 22.8379C121.632 22.5566 122.909 22.416 124.362 22.416H127.298ZM140.692 18.6367V41.3125H135.63V14.9805H140.323L140.692 18.6367ZM152.733 24.2793V24.6484C152.733 26.0312 152.569 27.3145 152.241 28.498C151.925 29.6816 151.456 30.7129 150.835 31.5918C150.214 32.459 149.44 33.1387 148.514 33.6309C147.6 34.1113 146.546 34.3516 145.35 34.3516C144.19 34.3516 143.182 34.1172 142.327 33.6484C141.471 33.1797 140.751 32.5234 140.165 31.6797C139.591 30.8242 139.128 29.834 138.776 28.709C138.425 27.584 138.155 26.377 137.968 25.0879V24.1211C138.155 22.7383 138.425 21.4727 138.776 20.3242C139.128 19.1641 139.591 18.1621 140.165 17.3184C140.751 16.4629 141.466 15.8008 142.309 15.332C143.165 14.8633 144.167 14.6289 145.315 14.6289C146.522 14.6289 147.583 14.8574 148.497 15.3145C149.423 15.7715 150.196 16.4277 150.817 17.2832C151.45 18.1387 151.925 19.1582 152.241 20.3418C152.569 21.5254 152.733 22.8379 152.733 24.2793ZM147.653 24.6484V24.2793C147.653 23.4707 147.583 22.7266 147.442 22.0469C147.313 21.3555 147.102 20.752 146.809 20.2363C146.528 19.7207 146.153 19.3223 145.684 19.041C145.227 18.748 144.671 18.6016 144.014 18.6016C143.323 18.6016 142.731 18.7129 142.239 18.9355C141.759 19.1582 141.366 19.4805 141.061 19.9023C140.757 20.3242 140.528 20.8281 140.376 21.4141C140.223 22 140.13 22.6621 140.094 23.4004V25.8438C140.153 26.7109 140.317 27.4902 140.587 28.1816C140.856 28.8613 141.272 29.4004 141.835 29.7988C142.397 30.1973 143.135 30.3965 144.05 30.3965C144.718 30.3965 145.28 30.25 145.737 29.957C146.194 29.6523 146.563 29.2363 146.844 28.709C147.137 28.1816 147.343 27.5723 147.46 26.8809C147.589 26.1895 147.653 25.4453 147.653 24.6484Z" fill="#3A3A3A"/>
</svg>
